Title:
Hemingway and Gellhorn

Country:
USA/2012

Language:
English

Subtitle:
English (srt)

Director:
Philip Kaufman

Writers:
Jerry Stahl, Barbara Turner

Stars:
Nicole Kidman, Clive Owen, David Strathairn

Synopsis:
A drama centered on the romance between Ernest Hemingway and WWII correspondent Martha Gellhorn, Hemingway's inspiration for For Whom the Bell Tolls and the only woman who ever asked for a divorce from the writer. 

Trivia:

* Official Selection Cannes Film Festival 2012

* Nominated Golden Globe 2012:
 - Best Performance by an Actor in a Mini-Series or a Motion Picture Made for Television:  Clive Owen

 - Best Performance by an Actress in a Mini-Series or a Motion Picture Made for Television:  Nicole Kidman

Imdb: 
http://www.imdb.com/title/tt0423455/

Trailer: 
http://outnow.ch/Movies/2012/HemingwayAndGellhorn/Trailers/trailer1_en
 


Media Info:

General
Complete name                           :Hemingway.and.Gellhorn.2012.BRRip.XviD.AC3.HORiZON-ArtSubs
Format                                   : AVI
Format/Info                              : Audio Video Interleave
Format profile                           : OpenDML
File size                                : 1.96 GiB
Duration                                 : 2h 34mn
Overall bit rate                         : 1 815 Kbps
Writing application                      : Lavf52.94.0

Video
ID                                       : 0
Format                                   : MPEG-4 Visual
Format profile                           : Simple@L3
Format settings, BVOP                    : No
Format settings, QPel                    : No
Format settings, GMC                     : No warppoints
Format settings, Matrix                  : Default (H.263)
Codec ID                                 : XVID
Codec ID/Hint                            : XviD
Duration                                 : 2h 34mn
Bit rate                                 : 1 580 Kbps
Width                                    : 1 280 pixels
Height                                   : 720 pixels
Display aspect ratio                     : 16:9
Frame rate                               : 23.976 fps
Color space                              : YUV
Chroma subsampling                       : 4:2:0
Bit depth                                : 8 bits
Scan type                                : Progressive
Compression mode                         : Lossy
Bits/(Pixel*Frame)                       : 0.072
Stream size                              : 1.71 GiB (87%)
Writing library                          : XviD 1.2.1 (UTC 2008-12-04)

Audio
ID                                       : 1
Format                                   : AC-3
Format/Info                              : Audio Coding 3
Mode extension                           : CM (complete main)
Format settings, Endianness              : Big
Codec ID                                 : 2000
Duration                                 : 2h 34mn
Bit rate mode                            : Constant
Bit rate                                 : 224 Kbps
Channel(s)                               : 2 channels
Channel positions                        : Front: L R
Sampling rate                            : 48.0 KHz
Bit depth                                : 16 bits
Compression mode                         : Lossy
Stream size                              : 248 MiB (12%)
Alignment                                : Aligned on interleaves
Interleave, duration                     : 32 ms (0.77 video frame)
Interleave, preload duration             : 32 ms

